<?xml version="1.0" encoding="UTF-8" standalone="no"?>
<svg
   xmlns:dc="http://purl.org/dc/elements/1.1/"
   xmlns:cc="http://creativecommons.org/ns#"
   xmlns:rdf="http://www.w3.org/1999/02/22-rdf-syntax-ns#"
   xmlns:svg="http://www.w3.org/2000/svg"
   xmlns="http://www.w3.org/2000/svg"
   width="256"
   height="181.45399"
   viewBox="0 0 67.733332 48.009704"
   version="1.1"
   id="svg64">
  <defs
     id="defs58" />
  <metadata
     id="metadata61">
    <rdf:RDF>
      <cc:Work
         rdf:about="">
        <dc:format>image/svg+xml</dc:format>
        <dc:type
           rdf:resource="http://purl.org/dc/dcmitype/StillImage" />
        <dc:title></dc:title>
      </cc:Work>
    </rdf:RDF>
  </metadata>
  <g
     id="layer1">
    <g
       id="svgg_3_"
       transform="matrix(0.193883,0,0,0.193883,0,8.1811761e-5)">
      <path
         id="path0_3_"
         fill="#FFFFFF"
         d="m 30.813,5.334 c -3.312,2.969 -8.337,7.447 -11.167,9.95 -2.83,2.503 -5.623,4.979 -6.207,5.5 -0.583,0.522 -3.845,3.416 -7.25,6.433 L 0,32.7 v 93.378 c 0,51.358 0.062,93.441 0.138,93.518 0.076,0.077 1.013,0.09 2.083,0.029 L 4.167,219.518 4.125,127.245 C 4.102,76.495 4.177,34.84 4.292,34.676 4.405,34.512 6.45,32.659 8.833,30.561 c 2.384,-2.1 4.409,-3.896 4.5,-3.992 0.092,-0.096 2.117,-1.896 4.5,-4 2.384,-2.104 4.409,-3.902 4.5,-3.996 0.092,-0.094 1.439,-1.295 2.996,-2.67 1.556,-1.375 3.131,-2.775 3.5,-3.113 0.368,-0.338 2.357,-2.115 4.421,-3.951 L 36.999,5.5 41.416,9.446 c 2.43,2.17 4.941,4.417 5.584,4.992 0.642,0.575 6.004,5.344 11.917,10.597 5.912,5.254 10.763,9.735 10.777,9.958 0.017,0.224 0.037,13.982 0.047,30.573 l 0.017,30.167 -19.712,0.087 -19.713,0.086 v 1.997 1.998 l 4.75,0.01 c 2.612,0.006 54.1,0.021 114.417,0.032 l 109.667,0.022 5.046,6.219 c 2.775,3.419 8.063,9.919 11.75,14.443 l 6.703,8.229 v 8.854 8.856 h -14.009 -14.008 l -2.093,1.917 c -1.151,1.054 -2.685,2.441 -3.408,3.085 -0.724,0.642 -4.315,3.86 -7.981,7.151 -3.667,3.291 -8.017,7.189 -9.664,8.664 -1.649,1.476 -3.162,2.832 -3.363,3.017 -0.201,0.183 -2.114,1.901 -4.253,3.819 l -3.888,3.484 1.251,1.34 c 1.8,1.932 10.399,10.971 17.775,18.684 1.755,1.837 6.4,6.714 10.322,10.839 21.603,22.726 23.947,25.187 29.059,30.5 1.765,1.834 3.896,4.084 4.735,5 l 1.529,1.667 1.225,-1.333 c 0.674,-0.733 4.018,-4.259 7.432,-7.834 3.414,-3.575 10.842,-11.375 16.505,-17.333 5.663,-5.958 13.23,-13.904 16.815,-17.657 10.634,-11.131 11.894,-12.454 13.012,-13.676 0.588,-0.642 2.518,-2.67 4.288,-4.506 1.771,-1.837 3.71,-3.874 4.312,-4.526 l 1.093,-1.186 -7.064,-6.309 c -3.886,-3.469 -7.318,-6.533 -7.629,-6.808 -1.729,-1.531 -6.438,-5.769 -8.334,-7.5 -1.205,-1.101 -2.785,-2.524 -3.513,-3.166 -4.191,-3.699 -7.66,-6.866 -7.756,-7.084 -0.063,-0.137 -6.474,-0.25 -14.25,-0.25 h -14.14 v -9.75 l -0.002,-9.75 -3.535,-4.333 c -1.944,-2.383 -4.391,-5.383 -5.436,-6.667 -1.044,-1.283 -4.216,-5.17 -7.047,-8.637 -2.831,-3.467 -6.085,-7.479 -7.23,-8.916 l -2.084,-2.613 H 167.666 74 V 64.252 C 74,33.834 73.976,32.588 73.383,32.17 73.044,31.93 71.506,30.594 69.966,29.202 68.427,27.81 61.617,21.752 54.833,15.739 48.05,9.727 41.319,3.741 39.877,2.437 38.434,1.133 37.159,0.037 37.043,0 36.928,-0.037 34.124,2.364 30.813,5.334 m 227.372,151.983 c -1.938,3.713 -4.984,9.56 -6.771,12.995 l -3.247,6.245 -10.334,-0.005 c -8.558,-0.006 -10.235,-0.08 -9.763,-0.44 0.314,-0.239 1.814,-1.558 3.334,-2.931 1.52,-1.374 5.013,-4.508 7.763,-6.963 2.75,-2.455 5.6,-5.016 6.333,-5.688 0.732,-0.674 3.508,-3.184 6.167,-5.578 l 4.833,-4.352 2.604,-0.017 2.604,-0.017 -3.523,6.751 m 50.393,0.506 c 2.061,3.985 5.105,9.832 6.768,12.994 l 3.021,5.75 H 284.653 250.94 l 2.081,-3.916 c 2.327,-4.382 3.868,-7.329 8.145,-15.584 1.614,-3.116 3.081,-5.854 3.259,-6.083 0.252,-0.325 4.721,-0.415 20.366,-0.411 l 20.041,0.007 3.746,7.243 m 5.326,-6.172 c 1.081,0.928 3.775,3.342 16.808,15.06 1.032,0.931 3.834,3.416 6.225,5.523 2.391,2.107 4.358,3.946 4.371,4.083 0.014,0.138 -4.512,0.247 -10.058,0.242 l -10.084,-0.009 -3.592,-6.907 c -1.976,-3.8 -5.012,-9.609 -6.748,-12.909 -1.735,-3.3 -3.157,-6.038 -3.158,-6.083 -0.017,-0.763 5.148,0.065 6.236,1 m -58.258,28.821 c 0.247,0.682 0.939,2.294 1.54,3.584 1.077,2.314 6.74,15.01 9.149,20.511 0.683,1.56 3.153,7.108 5.493,12.334 8.481,18.952 8,17.794 6.793,16.333 -0.379,-0.458 -2.17,-2.374 -3.98,-4.258 -4.027,-4.188 -7.928,-8.275 -15.975,-16.737 -9.345,-9.826 -12.544,-13.18 -15.891,-16.66 -1.681,-1.747 -3.462,-3.628 -3.956,-4.178 -0.494,-0.55 -2.413,-2.575 -4.264,-4.5 -1.851,-1.925 -4.266,-4.438 -5.368,-5.584 l -2.003,-2.083 h 14.007 14.006 l 0.449,1.238 m 55.686,-1.066 c 0,0.165 -3.803,8.794 -6.827,15.495 -2.028,4.491 -8.036,17.968 -9.51,21.333 -0.683,1.559 -2.542,5.758 -4.131,9.333 -1.59,3.575 -3.597,8.108 -4.461,10.074 -1.853,4.215 -1.73,4.149 -2.811,1.51 -0.468,-1.146 -4.039,-9.209 -7.935,-17.917 -3.895,-8.708 -7.643,-17.107 -8.327,-18.667 -0.686,-1.558 -3.065,-6.927 -5.288,-11.931 -2.225,-5.004 -4.043,-9.166 -4.043,-9.25 0,-0.084 12,-0.152 26.666,-0.152 14.666,0 26.667,0.078 26.667,0.172 m 28.636,2.078 c -1.2,1.237 -5.314,5.55 -9.145,9.583 -3.829,4.034 -8.474,8.909 -10.321,10.834 -1.849,1.925 -4.713,4.925 -6.365,6.666 -1.652,1.742 -4.657,4.892 -6.678,7 -2.021,2.108 -6.654,6.983 -10.297,10.834 -6.933,7.328 -7.566,7.915 -6.668,6.176 0.303,-0.585 1.044,-2.214 1.647,-3.62 1.048,-2.441 7.013,-15.869 8.761,-19.723 1.192,-2.627 4.639,-10.345 6.102,-13.667 0.687,-1.558 2.181,-4.933 3.319,-7.5 1.141,-2.565 2.471,-5.603 2.957,-6.747 l 0.886,-2.081 13.991,-0.002 13.991,-0.003 -2.18,2.25 m -172.801,11.22 c -6.591,1.634 -11.419,8.628 -12.678,18.363 -0.118,0.917 -0.281,2.042 -0.361,2.5 -0.299,1.706 -0.17,10.933 0.19,13.667 1.709,12.924 6.851,19.545 15.707,20.229 12.36,0.953 18.95,-8.625 18.966,-27.562 0.017,-20.226 -8.273,-30.555 -21.824,-27.197 M 11.25,193.173 c -0.886,0.102 -0.917,0.173 -0.917,2.082 v 1.979 H 16.667 23 v 24.667 24.666 H 25.5 28 V 221.908 197.25 l 6.25,-0.092 6.25,-0.091 0.021,-1.916 0.023,-1.917 -1.023,-0.021 c -4.364,-0.091 -27.546,-0.124 -28.271,-0.04 m 106.97,0.002 c -0.51,0.099 -0.553,2.193 -0.553,26.75 v 26.642 h 2.331 2.331 l 0.085,-23.25 c 0.086,-23.147 0.089,-23.242 0.711,-21.583 0.344,0.917 1.343,3.393 2.22,5.5 0.878,2.107 2.573,6.232 3.767,9.167 3.132,7.695 8.989,22.051 10.779,26.416 l 1.537,3.75 h 3.453 3.452 v -26.64 -26.639 l -2.332,-0.111 -2.331,-0.11 -0.085,23.332 -0.085,23.332 -1.561,-3.998 c -0.857,-2.2 -3.273,-8.199 -5.369,-13.332 -2.094,-5.134 -5.395,-13.233 -7.333,-18 -1.938,-4.767 -3.762,-9.229 -4.053,-9.917 -0.451,-1.07 -0.683,-1.253 -1.605,-1.27 -0.595,-0.01 -1.918,-0.047 -2.942,-0.082 -1.026,-0.036 -2.114,-0.016 -2.417,0.043 m 71.706,-0.009 c -0.4,0.079 -0.327,0.653 0.427,3.332 1.42,5.043 4.401,15.789 6.816,24.569 1.937,7.042 3.752,13.558 6.315,22.667 l 0.751,2.667 2.936,0.097 c 3.612,0.119 3.129,0.738 5.146,-6.597 0.934,-3.392 2.363,-8.567 3.179,-11.5 0.814,-2.935 2.226,-8.034 3.136,-11.334 4.299,-15.592 6.101,-22.074 6.373,-22.916 0.162,-0.505 0.189,-0.928 0.062,-0.94 -0.709,-0.074 -4.818,0 -4.896,0.088 -0.051,0.056 -0.853,2.953 -1.779,6.436 -0.928,3.482 -2.886,10.833 -4.351,16.333 -1.467,5.5 -3.505,13.211 -4.53,17.134 -1.026,3.924 -1.959,7.285 -2.073,7.471 -0.114,0.185 -0.54,-1.002 -0.946,-2.635 -0.405,-1.633 -1.676,-6.494 -2.821,-10.803 -1.979,-7.432 -3.395,-12.775 -6.096,-23 -2.158,-8.174 -2.6,-9.828 -2.767,-10.389 -0.161,-0.528 -3.4,-0.98 -4.882,-0.68 m -144.84,20.818 c 0.133,22.456 0.083,21.814 2.021,26.049 4.886,10.671 23.608,9.901 27.539,-1.132 1.464,-4.11 1.454,-3.959 1.592,-25.25 l 0.133,-20.417 h -2.502 -2.503 l -0.107,20.417 c -0.122,23.294 -0.104,23.131 -2.965,26.381 -3.878,4.406 -12.398,4.271 -15.674,-0.25 -2.639,-3.639 -2.86,-5.872 -2.819,-28.465 l 0.032,-18.083 h -2.436 -2.435 l 0.124,20.75 m 38.247,5.917 v 26.666 h 2.5 2.5 v -11.509 -11.51 l 4.547,0.093 4.546,0.093 2.736,5.833 c 1.505,3.209 3.44,7.327 4.302,9.151 0.861,1.826 2.037,4.339 2.614,5.584 l 1.05,2.265 h 2.602 c 1.433,0 2.604,-0.056 2.604,-0.125 0,-0.067 -1.292,-2.806 -2.871,-6.083 -1.579,-3.277 -3.436,-7.158 -4.125,-8.625 -0.689,-1.467 -1.872,-3.977 -2.629,-5.576 -1.693,-3.584 -1.729,-3.238 0.45,-4.377 8.876,-4.637 9.428,-20.421 0.919,-26.275 -2.864,-1.971 -4.645,-2.267 -13.66,-2.269 l -8.084,-0.003 v 26.667 m 91.707,-22.819 c 6.145,2.163 8.999,9.387 9.014,22.819 0.017,15.577 -4.156,23.333 -12.555,23.333 -8.379,0 -12.5,-7.664 -12.5,-23.243 0,-17.732 6.081,-26.418 16.041,-22.909 m -74.638,0.943 c 4.175,1.824 6.12,6.167 5.556,12.395 -0.607,6.693 -4.224,9.147 -13.476,9.147 h -4.15 v -11.21 -11.21 l 5.417,0.169 c 3.965,0.123 5.748,0.312 6.653,0.709" />
    </g>
  </g>
</svg>
